<!DOCTYPE svg PUBLIC "-//W3C//DTD SVG 1.1//EN" "http://www.w3.org/Graphics/SVG/1.1/DTD/svg11.dtd">

<!-- Uploaded to: SVG Repo, www.svgrepo.com, Transformed by: SVG Repo Mixer Tools -->
<svg fill="#1d4ed8" height="800px" width="800px" version="1.1" id="Layer_1" xmlns="http://www.w3.org/2000/svg" xmlns:xlink="http://www.w3.org/1999/xlink" viewBox="0 0 512 512" xml:space="preserve" stroke="#ffffff">

<g id="SVGRepo_bgCarrier" stroke-width="0"/>

<g id="SVGRepo_tracerCarrier" stroke-linecap="round" stroke-linejoin="round"/>

<g id="SVGRepo_iconCarrier"> <g> <g> <path d="M256,0C114.842,0,0,114.842,0,256s114.842,256,256,256s256-114.842,256-256S397.158,0,256,0z M256,467.478 C139.39,467.478,44.522,372.61,44.522,256S139.39,44.522,256,44.522S467.478,139.39,467.478,256S372.61,467.478,256,467.478z"/> </g> </g> <g> <g> <path d="M256,72.348C154.734,72.348,72.348,154.734,72.348,256S154.734,439.652,256,439.652S439.652,357.266,439.652,256 S357.266,72.348,256,72.348z M256,105.739c9.22,0,16.696,7.475,16.696,16.696c0,9.22-7.475,16.696-16.696,16.696 c-9.22,0-16.696-7.475-16.696-16.696C239.304,113.214,246.78,105.739,256,105.739z M122.435,272.696 c-9.22,0-16.696-7.475-16.696-16.696c0-9.22,7.475-16.696,16.696-16.696c9.22,0,16.696,7.475,16.696,16.696 C139.13,265.22,131.655,272.696,122.435,272.696z M256,406.261c-9.22,0-16.696-7.475-16.696-16.696 c0-9.22,7.475-16.696,16.696-16.696c9.22,0,16.696,7.475,16.696,16.696C272.696,398.786,265.22,406.261,256,406.261z M338.734,197.527l-70.609,70.604c-3.261,3.261-7.533,4.892-11.804,4.892c-4.271,0-8.544-1.631-11.804-4.892l-47.451-47.451 c-6.521-6.516-6.521-17.092,0-23.609c6.521-6.521,17.087-6.521,23.609,0l35.646,35.646l58.804-58.799 c6.521-6.521,17.087-6.521,23.609,0C345.255,180.44,345.255,191.01,338.734,197.527z M389.565,272.696 c-9.22,0-16.696-7.475-16.696-16.696c0-9.22,7.475-16.696,16.696-16.696c9.22,0,16.696,7.475,16.696,16.696 C406.261,265.22,398.786,272.696,389.565,272.696z"/> </g> </g> </g>

</svg>